<svg version="1" xmlns="http://www.w3.org/2000/svg" width="682.667" height="682.667" viewBox="0 0 512.000000 512.000000"><path d="M290.8 106.7l-.3 11.8-34.2.3-34.3.2v23h-69v22h-24v23h-23v47H82v45h24v93h23v21h46v24h68v-24h47v-21l-23.2.2-23.3.3-.3 10.2-.3 10.3h-67.8l-.3-10.3-.3-10.2-22.7-.3-22.8-.2-.2-46.3-.3-46.2-11.2-.3-11.3-.3V234h23v-47h24.1l-.1-8.8c-.1-4.8-.1-9.9-.1-11.4l.1-2.8 34.3-.2 34.2-.3.3-10.8.3-10.7H267v22h23v23h-23v47h23v46h-46v23h70v22h-70v23h46v10.4c0 5.7.3 11.1.6 12 .5 1.4 4.5 1.6 34.5 1.6h33.8l.3-11.8.3-11.7 11.8-.3 11.7-.3V325h22v-22h-22v-24h22v-45l-22.7-.2-22.8-.3-.3-11.3-.3-11.2H383v-24h22v-23h25v-45h-94V95h-44.9l-.3 11.7zM405 153v11h-22v23h-11.4c-9.5 0-11.5.3-12 1.6-.3.9-.6 6.3-.6 12V211h-23v45h47V278.7l-17.6.7c-9.7.3-25.2.3-34.5 0l-16.9-.7V234h-23v-23h23v-47h22v-22h69v11z"/><path d="M152.5 236.2c-.3 1.3-.5 6.1-.3 10.8l.3 8.5h22l.3-8.5c.5-13.6 1-13-11.3-13-10 0-10.5.1-11 2.2zM198 267.4c0 13.3-.7 12.6 12.3 12.6 11.4 0 11.7-.3 11.7-10.8 0-14 .7-13.2-12.6-13.2H198v11.4zM152.7 303.6c-.4.4-.7 10.6-.7 22.6V348h46v-23h-22.9l-.3-10.8-.3-10.7-10.6-.3c-5.8-.1-10.8.1-11.2.4z"/></svg>